<?xml version="1.0" encoding="UTF-8"?>
<svg version="1.1" xmlns="http://www.w3.org/2000/svg" width="500" height="500">
<path d="M0 0 C2.9623524 1.33430816 5.04307566 2.79382369 7.33455276 5.08845711 C7.97649495 5.7264172 8.61843714 6.36437729 9.27983212 7.02166951 C9.97633335 7.72399641 10.67283457 8.42632332 11.39044189 9.14993286 C12.13706612 9.89484824 12.88369035 10.63976362 13.65293956 11.40725219 C16.16045171 13.91146285 18.66073586 16.42276845 21.16113281 18.93408203 C22.95437396 20.72788715 24.74805528 22.52125234 26.54214478 24.31420898 C30.40727177 28.17888013 34.26930778 32.04659919 38.12857819 35.91711807 C43.7084391 41.51323181 49.29381328 47.10381596 54.88054928 52.69306515 C63.94446526 61.76135857 73.00390573 70.83410949 82.06054688 79.90966797 C90.8583338 88.72581242 99.65821848 97.53985423 108.4609375 106.35107422 C109.0035198 106.89418197 109.5461021 107.43728972 110.10512629 107.99685527 C112.82711031 110.72144936 115.54913566 113.44600213 118.27118158 116.17053437 C140.85386845 138.77395527 163.42929783 161.38461153 186 184 C181.68772451 189.15320955 177.16697007 193.97347273 172.40701294 198.71324158 C171.66276341 199.45834553 170.91851389 200.20344948 170.15171134 200.97113234 C167.67137865 203.45310472 165.18750252 205.93149942 162.70361328 208.40991211 C160.91928486 210.19395831 159.1351769 211.97822504 157.35127258 213.76269531 C153.51738536 217.59680984 149.68197693 221.42939224 145.84515762 225.26057243 C140.29785222 230.79973008 134.75332985 236.34166664 129.20946978 241.88427228 C120.2135432 250.87801349 111.21538852 259.86952203 102.21582031 268.85961914 C93.47668895 277.58956307 84.73861477 286.32056294 76.00195312 295.05297852 C75.46288327 295.59178565 74.92381341 296.13059279 74.3684081 296.68572741 C71.66389778 299.38893263 68.95940816 302.09215856 66.25492883 304.79539478 C43.83982652 327.20014049 21.42106588 349.60122216 -1 372 C-1.66 371.67 -2.32 371.34 -3 371 C-3.10716864 344.48977715 -3.06838626 317.99491663 -2.57174683 291.48880005 C-2.056923 263.76386175 -1.95153109 236.050913 -1.99501419 208.32148361 C-2.06400536 164.09012015 -1.90043123 119.86280707 -1.61115968 75.63251996 C-1.57281311 69.74226899 -1.53717496 63.85200566 -1.50268555 57.96173096 C-1.46035193 50.75345036 -1.41422289 43.54520605 -1.36312145 36.33698207 C-1.33674646 32.61253701 -1.31185693 28.88809808 -1.29092598 25.16361809 C-1.2679154 21.09478485 -1.23706342 17.02604988 -1.20532227 12.95727539 C-1.1995668 11.74946474 -1.19381134 10.54165409 -1.18788147 9.29724312 C-1.17319824 7.66565915 -1.17319824 7.66565915 -1.15821838 6.00111389 C-1.15176583 5.05308427 -1.14531328 4.10505465 -1.1386652 3.12829685 C-1 1 -1 1 0 0 Z " fill="#0266CA" transform="translate(202,78)"/>
<path d="M0 0 C24.62529876 0.10708989 49.25056603 0.21982406 73.87580776 0.33933926 C85.30887755 0.39469544 96.74195046 0.4481813 108.17504883 0.49731445 C118.13627988 0.54012702 128.09748773 0.5863975 138.05868298 0.63687855 C143.33652813 0.66350315 148.61436861 0.68835672 153.89224052 0.70907402 C158.8538614 0.72860445 163.81543802 0.75273723 168.7770195 0.78049088 C170.60361874 0.78988042 172.43022772 0.7975488 174.25684166 0.80341911 C176.73946837 0.8116481 179.22198672 0.8259154 181.70457458 0.84178162 C182.80328916 0.84324878 182.80328916 0.84324878 183.9242 0.84474558 C188.88587879 0.88587879 188.88587879 0.88587879 190 2 C190.09777019 4.56718197 190.12995016 7.10743916 190.12025452 9.67506409 C190.12153615 10.8952861 190.12153615 10.8952861 190.12284368 12.14015907 C190.12450097 14.88716241 190.11897306 17.63410573 190.11352539 20.38110352 C190.11324355 22.34181721 190.1134012 24.302531 190.1139679 26.26324463 C190.11425598 31.60393334 190.10835752 36.94459981 190.10139394 42.28528333 C190.09516218 47.86002316 190.09455674 53.43476345 190.09336853 59.00950623 C190.09025469 69.57406091 190.08204059 80.13860531 190.07201904 90.70315546 C190.06085955 102.7271323 190.05534787 114.75110961 190.05032361 126.77509034 C190.03985801 151.51673261 190.02225755 176.25836573 190 201 C187 201 187 201 184.546875 198.875 C183.60681396 197.92428671 182.67480116 196.96556374 181.75 196 C180.83734375 195.071875 179.9246875 194.14375 178.984375 193.1875 C176.83513593 190.93129544 174.78503773 188.60793965 172.75328064 186.24569702 C169.30512458 182.2961813 165.68975887 178.56685776 161.96313477 174.88134766 C161.29886978 174.22014923 160.6346048 173.55895081 159.95021057 172.87771606 C158.52342755 171.45802859 157.09551591 170.03947461 155.66656685 168.62196732 C153.4074997 166.38041889 151.15210538 164.13523369 148.89768982 161.88900757 C142.49310627 155.5087818 136.08275927 149.13436894 129.66821289 142.76416016 C125.73320926 138.85585251 121.80302018 134.94275752 117.87580681 131.02662277 C116.37888984 129.53592843 114.88007635 128.04713609 113.37936592 126.56026077 C111.29209313 124.4920849 109.21094291 122.4179322 107.13110352 120.34228516 C106.50625061 119.72619385 105.88139771 119.11010254 105.23760986 118.4753418 C101 114.22789901 101 114.22789901 101 112 C100.34 112 99.68 112 99 112 C97.52405453 110.50349236 97.52405453 110.50349236 95.82054138 108.45065308 C92.34439489 104.36565889 88.68307625 100.55987032 84.87133789 96.78955078 C84.19731934 96.11859879 83.52330078 95.44764679 82.82885742 94.75636292 C81.3807929 93.31539518 79.9316 91.87556064 78.48137093 90.43677139 C76.18870062 88.16161628 73.89969989 85.88282713 71.61167908 83.60299683 C65.1115133 77.12719169 58.60558773 70.65719505 52.09545898 64.19140625 C48.10210074 60.22474378 44.11355663 56.25329398 40.12798882 52.27880478 C38.60874311 50.76578194 37.08760083 49.25466108 35.56456184 47.7454567 C33.44615651 45.64614788 31.33387227 43.54086153 29.22290039 41.43408203 C28.58869675 40.80863998 27.9544931 40.18319794 27.30107117 39.5388031 C23 35.22789896 23 35.22789896 23 33 C22.34 33 21.68 33 21 33 C19.765625 31.7421875 19.765625 31.7421875 18.25 29.875 C15.80783985 26.93295206 13.26561275 24.28859027 10.42578125 21.73828125 C9.79188477 21.15385254 9.15798828 20.56942383 8.50488281 19.96728516 C7.23250434 18.80141801 5.939181 17.65791436 4.62402344 16.54052734 C1.7963182 13.90454388 0.11603226 12.17397609 -0.27503967 8.21723938 C-0.24236496 7.24103134 -0.20969025 6.2648233 -0.17602539 5.2590332 C-0.15061172 4.27288528 -0.12519806 3.28673737 -0.09901428 2.27070618 C-0.06633957 1.52137314 -0.03366486 0.7720401 0 0 Z " fill="#0065CA" transform="translate(0,76)"/>
<path d="M0 0 C0.99 0.33 1.98 0.66 3 1 C3.10457254 12.79345834 3.08680702 24.5773615 2.77734375 36.3671875 C2.68401995 40.01560319 2.59169817 43.6640431 2.5 47.3125 C2.47541718 48.27326447 2.45083435 49.23402893 2.42550659 50.22390747 C2.02070568 66.73682085 1.98331403 83.23719234 2.0390625 99.75390625 C2.04511898 101.87065097 2.0510798 103.98739597 2.0569458 106.10414124 C2.08530111 115.73872188 2.1223964 125.3729956 2.19231606 135.00737286 C2.21890705 139.06852654 2.23345442 143.12966448 2.24518967 147.19088554 C2.25356247 149.11119139 2.2673643 151.03148172 2.28676224 152.95170784 C2.3130572 155.60124919 2.32104884 158.25024737 2.32470703 160.89990234 C2.33706139 161.68185628 2.34941574 162.46381021 2.36214447 163.26945972 C2.34240586 168.54814414 2.34240586 168.54814414 0.47970581 171.0062561 C-0.00859711 171.33419159 -0.49690002 171.66212708 -1 172 C-1 171.34 -1 170.68 -1 170 C-1.66 170 -2.32 170 -3 170 C-3 169.34 -3 168.68 -3 168 C-3.88329876 167.60321958 -3.88329876 167.60321958 -4.78444195 167.19842339 C-7.08105185 165.95615803 -8.60005339 164.65909071 -10.44892883 162.82522583 C-11.11217667 162.17195312 -11.7754245 161.51868042 -12.45877075 160.84561157 C-13.1753183 160.1297287 -13.89186584 159.41384583 -14.63012695 158.67626953 C-15.39309586 157.92162415 -16.15606476 157.16697876 -16.94215393 156.38946533 C-19.46301464 153.89270663 -21.97614371 151.38834612 -24.48828125 148.8828125 C-26.23366101 147.14639559 -27.97912003 145.41005834 -29.72465515 143.67379761 C-33.38080113 140.03414242 -37.0325288 136.39011485 -40.68188477 132.74365234 C-45.36911264 128.0618225 -50.07229731 123.39637767 -54.77956867 118.7347126 C-58.38836772 115.15557863 -61.98593785 111.56532045 -65.5804348 107.97182846 C-67.31039317 106.24608975 -69.04449331 104.52449297 -70.78270912 102.80707169 C-73.20600692 100.41048013 -75.61316633 97.99876446 -78.0168457 95.58251953 C-78.7435144 94.87068512 -79.47018311 94.15885071 -80.21887207 93.42544556 C-80.86802078 92.7665332 -81.51716949 92.10762085 -82.18598938 91.42874146 C-82.75691472 90.85982744 -83.32784006 90.29091343 -83.91606617 89.7047596 C-85 88 -85 88 -84.88270187 86.01507759 C-83.82205501 83.59377794 -82.56511473 82.19597115 -80.69078064 80.33001709 C-79.98261703 79.61772949 -79.27445343 78.90544189 -78.54483032 78.17156982 C-77.76296356 77.40048889 -76.9810968 76.62940796 -76.17553711 75.83496094 C-74.94636818 74.60513489 -74.94636818 74.60513489 -73.69236755 73.35046387 C-70.9777422 70.63793118 -68.25263953 67.9361834 -65.52734375 65.234375 C-63.64481629 63.35744177 -61.76288527 61.47992922 -59.88172913 59.60162354 C-55.43241985 55.16163839 -50.97551858 50.72935592 -46.51584297 46.29978585 C-41.43866333 41.25613872 -36.37 36.20397001 -31.30203617 31.15106535 C-20.87747893 20.75786547 -10.44225993 10.37541419 0 0 Z " fill="#0165CA" transform="translate(387,78)"/>
<path d="M0 0 C1.74292177 1.74292177 1.11980303 4.00623495 1.12442017 6.32824707 C1.11902725 7.472995 1.11902725 7.472995 1.11352539 8.64086914 C1.11367142 9.44080795 1.11381744 10.24074677 1.1139679 11.06492615 C1.11326855 13.72169665 1.10547518 16.37839793 1.09765625 19.03515625 C1.09579215 20.87218691 1.09436821 22.70921806 1.09336853 24.54624939 C1.08954275 29.39109662 1.07971196 34.23591408 1.06866455 39.08074951 C1.05845172 44.02062578 1.05387119 48.96050685 1.04882812 53.90039062 C1.03808974 63.60027353 1.0210126 73.30013429 1 83 C-0.10408203 82.58427734 -0.10408203 82.58427734 -1.23046875 82.16015625 C-2.20628906 81.79792969 -3.18210937 81.43570313 -4.1875 81.0625 C-5.15042969 80.70285156 -6.11335938 80.34320313 -7.10546875 79.97265625 C-27.41055129 73.14949086 -49.5403482 80.763912 -69.03027344 86.71313477 C-70.4964209 87.15677368 -70.4964209 87.15677368 -71.9921875 87.609375 C-72.86214355 87.87717773 -73.73209961 88.14498047 -74.62841797 88.42089844 C-77 89 -77 89 -81 89 C-81 61.94 -81 34.88 -81 7 C-72.75 4.69 -64.5 2.38 -56 0 C-52.844375 -0.969375 -49.68875 -1.93875 -46.4375 -2.9375 C-31.42831638 -6.82207805 -13.88153775 -7.88429984 0 0 Z " fill="#064020" transform="translate(335,221)"/>
<path d="M0 0 C0 27.06 0 54.12 0 82 C-28.38 82 -56.76 82 -86 82 C-79.30501265 74.18918142 -79.30501265 74.18918142 -76.12060547 71.55639648 C-71.88056614 67.94295374 -67.97448328 64.06804043 -64.0703125 60.09765625 C-62.60169035 58.61640969 -61.13293668 57.13529352 -59.6640625 55.65429688 C-57.37766588 53.34291907 -55.09291719 51.02995354 -52.81054688 48.71459961 C-50.58893953 46.46297693 -48.36130595 44.21746068 -46.1328125 41.97265625 C-45.44639679 41.27278091 -44.75998108 40.57290558 -44.05276489 39.8518219 C-43.41805267 39.21373093 -42.78334045 38.57563995 -42.12939453 37.91821289 C-41.57172394 37.35308487 -41.01405334 36.78795685 -40.43948364 36.20570374 C-39 35 -39 35 -37 35 C-37 34.34 -37 33.68 -37 33 C-36.34 33 -35.68 33 -35 33 C-34.773125 32.43539062 -34.54625 31.87078125 -34.3125 31.2890625 C-32.62735543 28.35009013 -30.55240817 26.60835715 -28 24.375 C-21.37435912 18.50448347 -15.19941724 12.21406183 -9.05664062 5.84326172 C-7.94385742 4.70848389 -7.94385742 4.70848389 -6.80859375 3.55078125 C-6.14657959 2.86669189 -5.48456543 2.18260254 -4.80249023 1.4777832 C-3 0 -3 0 0 0 Z " fill="#0165CA" transform="translate(190,367)"/>
<path d="M0 0 C5.94 2.475 5.94 2.475 12 5 C16.72229847 5.78704975 21.01112424 6.15677407 25.75 6.125 C26.44867188 6.12306641 27.14734375 6.12113281 27.8671875 6.11914062 C33.28547879 6.07415481 38.62683014 5.72331133 44 5 C43.34 5.33 42.68 5.66 42 6 C42 33.39 42 60.78 42 89 C36.28857925 90.90380692 32.35928157 91.4202439 26.5 91.4375 C25.18346436 91.44221313 25.18346436 91.44221313 23.84033203 91.44702148 C15.01262602 91.28676665 7.87846486 88.93923243 0 85 C0 56.95 0 28.9 0 0 Z " fill="#FAFCFC" transform="translate(212,222)"/>
<path d="M0 0 C3.39483911 1.43839622 5.22237502 3.1557023 7.5859375 5.9609375 C12.1047131 11.10860533 16.87140187 15.95839574 21.7265625 20.7890625 C22.52310242 21.58229919 23.31964233 22.37553589 24.14031982 23.19281006 C26.63327625 25.67216573 29.12870795 28.14900301 31.625 30.625 C34.93265889 33.90588139 38.23686115 37.19018915 41.5390625 40.4765625 C42.28402985 41.21323151 43.02899719 41.94990051 43.79653931 42.70889282 C47.86346572 46.75692981 51.75016009 50.89458728 55.4793396 55.25668335 C57.54511406 57.62493007 59.74461016 59.81295531 62 62 C61 63 61 63 58.56394958 63.12025452 C57.48251175 63.11803391 56.40107391 63.11581329 55.28686523 63.11352539 C54.0656749 63.11344986 52.84448456 63.11337433 51.58628845 63.11329651 C50.24372314 63.10818911 48.90115825 63.10297311 47.55859375 63.09765625 C46.19238842 63.09579199 44.82618243 63.09436813 43.4599762 63.09336853 C39.85798305 63.08954394 36.25603 63.07971417 32.65405273 63.06866455 C28.98096255 63.05844916 25.30786591 63.05387064 21.63476562 63.04882812 C14.42315877 63.03809184 7.211585 63.02101614 0 63 C-0.9930649 59.68950644 -1.12670042 56.68637539 -1.12939453 53.23754883 C-1.13254669 52.07987503 -1.13569885 50.92220123 -1.13894653 49.72944641 C-1.1369223 48.48454941 -1.13489807 47.2396524 -1.1328125 45.95703125 C-1.13376923 44.67769211 -1.13472595 43.39835297 -1.13571167 42.08024597 C-1.13718352 39.37778512 -1.13504953 36.67535739 -1.13037109 33.97290039 C-1.12465693 30.50246216 -1.12796666 27.03210098 -1.13394356 23.56166553 C-1.13841453 20.25595129 -1.13529017 16.9502465 -1.1328125 13.64453125 C-1.13483673 12.39356155 -1.13686096 11.14259186 -1.13894653 9.85371399 C-1.13579437 8.70549667 -1.13264221 7.55727936 -1.12939453 6.37426758 C-1.12859894 5.35818924 -1.12780334 4.3421109 -1.12698364 3.29524231 C-1 1 -1 1 0 0 Z " fill="#0364C6" transform="translate(405,77)"/>
<path d="M0 0 C0.66 0.33 1.32 0.66 2 1 C1.45859375 1.90878906 1.45859375 1.90878906 0.90625 2.8359375 C-2.50356893 8.99255501 -4.14293889 13.95397016 -3 21 C-1.26660279 25.19664587 1.27442074 27.46221076 5 30 C12.53881196 31.22590156 19.11691895 30.05914713 26 27 C26.99 27 27.98 27 29 27 C23.54223356 34.32489707 17.11999598 38.52951205 8 40 C1.98606008 40.56735282 -2.09253437 39.36390269 -7 36 C-11.03325783 32.16840506 -11.33627628 28.59816086 -11.5625 23.25 C-11.29986408 14.66452225 -8.68284258 8.49850904 -2.6875 2.375 C-1.800625 1.59125 -0.91375 0.8075 0 0 Z " fill="#EEF6F2" transform="translate(286,240)"/>
<path d="M0 0 C24.62529876 0.10708989 49.25056603 0.21982406 73.87580776 0.33933926 C85.30887755 0.39469544 96.74195046 0.4481813 108.17504883 0.49731445 C118.13627988 0.54012702 128.09748773 0.5863975 138.05868298 0.63687855 C143.33652813 0.66350315 148.61436861 0.68835672 153.89224052 0.70907402 C158.8538614 0.72860445 163.81543802 0.75273723 168.7770195 0.78049088 C170.60361874 0.78988042 172.43022772 0.7975488 174.25684166 0.80341911 C176.73946837 0.8116481 179.22198672 0.8259154 181.70457458 0.84178162 C182.80328916 0.84324878 182.80328916 0.84324878 183.9242 0.84474558 C188.88587879 0.88587879 188.88587879 0.88587879 190 2 C190.09777019 4.56718197 190.12995016 7.10743916 190.12025452 9.67506409 C190.12153615 10.8952861 190.12153615 10.8952861 190.12284368 12.14015907 C190.12450097 14.88716241 190.11897306 17.63410573 190.11352539 20.38110352 C190.11324355 22.34181721 190.1134012 24.302531 190.1139679 26.26324463 C190.11425598 31.60393334 190.10835752 36.94459981 190.10139394 42.28528333 C190.09516218 47.86002316 190.09455674 53.43476345 190.09336853 59.00950623 C190.09025469 69.57406091 190.08204059 80.13860531 190.07201904 90.70315546 C190.06085955 102.7271323 190.05534787 114.75110961 190.05032361 126.77509034 C190.03985801 151.51673261 190.02225755 176.25836573 190 201 C187 201 187 201 184.95703125 199.25 C183.89548828 198.13625 183.89548828 198.13625 182.8125 197 C181.73935547 195.88625 181.73935547 195.88625 180.64453125 194.75 C180.10183594 194.1725 179.55914062 193.595 179 193 C182 193 182 193 184 194.9375 C184.66 195.618125 185.32 196.29875 186 197 C186.99 197.33 187.98 197.66 189 198 C188.67 133.65 188.34 69.3 188 3 C125.96 2.67 63.92 2.34 0 2 C0 1.34 0 0.68 0 0 Z " fill="#1861A8" transform="translate(0,76)"/>
<path d="M0 0 C62.04 0 124.08 0 188 0 C188 0.33 188 0.66 188 1 C127.94 1.33 67.88 1.66 6 2 C6 5.96 6 9.92 6 14 C3 12.0625 3 12.0625 0 9 C0 6.03 0 3.06 0 0 Z " fill="#0962C0" transform="translate(0,78)"/>
<path d="M0 0 C3.76603869 1.56282982 6.13639151 3.9063475 8.984375 6.7890625 C9.44483215 7.25234955 9.90528931 7.7156366 10.37969971 8.19296265 C11.84125078 9.66565898 13.29567168 11.14517403 14.75 12.625 C15.74302611 13.62806322 16.73651089 14.63067257 17.73046875 15.6328125 C20.15897941 18.08330835 22.58114675 20.5399667 25 23 C22 24 22 24 20 24 C19.5875 23.05125 19.175 22.1025 18.75 21.125 C16.9959869 17.99283376 16.29148243 17.13499394 13 16 C13 15.34 13 14.68 13 14 C11.35 14 9.7 14 8 14 C8.33 12.68 8.66 11.36 9 10 C5.74602492 7.74114676 5.74602492 7.74114676 2 7 C1.0308024 14.34167107 0.83067476 21.55486302 0.79467773 28.95532227 C0.78477814 30.22460068 0.77487854 31.49387909 0.76467896 32.80162048 C0.73784536 36.25550329 0.7167204 39.70939947 0.69667697 43.16332746 C0.6746831 46.78281361 0.64736051 50.40225961 0.62062073 54.02171326 C0.5708738 60.86375635 0.52586885 67.70582194 0.48259836 74.54790872 C0.4330713 82.34243338 0.37821096 90.13691771 0.32291877 97.93140328 C0.20937536 113.95423159 0.10247707 129.977097 0 146 C-0.33 146 -0.66 146 -1 146 C-1.02332783 127.11162119 -1.0409786 108.22324529 -1.05181217 89.33485508 C-1.05697538 80.56527285 -1.06401854 71.79569955 -1.07543945 63.02612305 C-1.08538554 55.38537097 -1.09185325 47.74462536 -1.09408849 40.10386699 C-1.09539573 36.05561615 -1.09848238 32.00738381 -1.10573006 27.95913887 C-1.11248909 24.15319131 -1.1146172 20.34726998 -1.11310768 16.54131699 C-1.11338406 15.14042328 -1.11538988 13.73952875 -1.11920547 12.33864021 C-1.12414083 10.43410492 -1.122398 8.52955574 -1.12025452 6.62501526 C-1.12117631 5.55665719 -1.1220981 4.48829912 -1.12304783 3.38756657 C-1 1 -1 1 0 0 Z " fill="#175E9C" transform="translate(202,78)"/>
<path d="M0 0 C0.33 0 0.66 0 1 0 C1.33 34.32 1.66 68.64 2 104 C3.98 104 5.96 104 8 104 C7.07347299 105.17539996 6.13336613 106.34010577 5.1875 107.5 C4.66542969 108.1496875 4.14335937 108.799375 3.60546875 109.46875 C2 111 2 111 -1 111 C-1.14946979 73.98334822 -0.7802921 37.00804987 0 0 Z " fill="#0F60AF" transform="translate(200,338)"/>
<path d="M0 0 C0.33 0 0.66 0 1 0 C1.86545352 19.02794898 2.21607213 38.02517129 2.24023438 57.0703125 C2.24585086 60.82587114 2.27025192 64.58109075 2.29820633 68.33654022 C2.31675237 71.26526965 2.32203265 74.19391271 2.32357025 77.12269592 C2.32658531 78.51019776 2.33457492 79.89769849 2.34775543 81.28514099 C2.36474001 83.19978648 2.36110193 85.11458172 2.35644531 87.02929688 C2.36009094 88.11368042 2.36373657 89.19806396 2.36749268 90.31530762 C1.95759472 93.30978883 1.36346358 94.19775042 -1 96 C-1 95.34 -1 94.68 -1 94 C-1.66 94 -2.32 94 -3 94 C-3 93.34 -3 92.68 -3 92 C-3.59329102 91.73268066 -4.18658203 91.46536133 -4.79785156 91.18994141 C-7.02933245 89.98415007 -8.4664799 88.7641905 -10.234375 86.9609375 C-10.80800781 86.38085938 -11.38164062 85.80078125 -11.97265625 85.203125 C-12.55917969 84.59984375 -13.14570313 83.9965625 -13.75 83.375 C-14.35199219 82.76398438 -14.95398438 82.15296875 -15.57421875 81.5234375 C-17.05405305 80.02011376 -18.52764676 78.51065144 -20 77 C-17 77 -17 77 -15.16796875 78.6796875 C-14.51441406 79.40414062 -13.86085938 80.12859375 -13.1875 80.875 C-10.00170324 84.20801472 -7.64298487 86.07140303 -3 87 C-3 87.99 -3 88.98 -3 90 C-2.34 90.33 -1.68 90.66 -1 91 C-1.00785522 89.74292236 -1.00785522 89.74292236 -1.01586914 88.46044922 C-1.17148455 58.96443418 -0.62157601 29.48863517 0 0 Z " fill="#0D5BA7" transform="translate(387,154)"/>
<path d="M0 0 C0.99 0 1.98 0 3 0 C3 27.06 3 54.12 3 82 C-25.38 82 -53.76 82 -83 82 C-81.02 79.69 -79.04 77.38 -77 75 C-77 78 -77 78 -79 81 C-52.27 81 -25.54 81 2 81 C2 54.93 2 28.86 2 2 C1.01 1.67 0.02 1.34 -1 1 C-0.67 0.67 -0.34 0.34 0 0 Z " fill="#1A60A9" transform="translate(187,367)"/>
<path d="M0 0 C1.2065625 0.0309375 1.2065625 0.0309375 2.4375 0.0625 C2.7675 1.3825 3.0975 2.7025 3.4375 4.0625 C2.1175 3.7325 0.7975 3.4025 -0.5625 3.0625 C-0.8925 30.4525 -1.2225 57.8425 -1.5625 86.0625 C-2.2225 86.0625 -2.8825 86.0625 -3.5625 86.0625 C-3.58562283 74.99715142 -3.60341478 63.93180855 -3.61431217 52.86644077 C-3.61954113 47.72890434 -3.62663901 42.59138437 -3.63793945 37.45385742 C-3.64876787 32.5001859 -3.65477674 27.54653026 -3.65737724 22.59284782 C-3.65923157 20.69852384 -3.66285234 18.80420076 -3.66823006 16.9098835 C-3.67543989 14.26615614 -3.67649097 11.62249529 -3.67602539 8.97875977 C-3.67962067 8.18754227 -3.68321594 7.39632477 -3.68692017 6.58113098 C-3.67446702 0.08962115 -3.67446702 0.08962115 0 0 Z " fill="#2372BF" transform="translate(213.5625,219.9375)"/>
<path d="M0 0 C0.99 0.66 1.98 1.32 3 2 C3.25640999 4.7844513 3.31906455 7.33980473 3.2487793 10.12158203 C3.23480606 11.38023071 3.23480606 11.38023071 3.22055054 12.66430664 C3.18609551 15.44587974 3.13021665 18.22659644 3.07421875 21.0078125 C3.04619514 22.9330766 3.01950373 24.85836051 2.99409485 26.78366089 C2.92354203 31.85727092 2.83483917 36.93040934 2.74243164 42.00366211 C2.65136871 47.17806001 2.57736573 52.35269828 2.50195312 57.52734375 C2.35138946 67.68520529 2.18166214 77.84265039 2 88 C1.34 87.67 0.68 87.34 0 87 C-0.00808685 85.95208282 -0.01617371 84.90416565 -0.02450562 83.82449341 C-0.10187636 73.96518982 -0.18959235 64.10602578 -0.28752708 54.24690437 C-0.3375455 49.17781453 -0.38387488 44.1087461 -0.421875 39.03955078 C-0.45865796 34.15060577 -0.50499849 29.26183751 -0.55806351 24.37304306 C-0.57664474 22.50469935 -0.5917388 20.6363177 -0.60334396 18.76791763 C-0.62014288 16.1577557 -0.64916177 13.54800189 -0.68115234 10.93798828 C-0.68331253 10.1597168 -0.68547272 9.38144531 -0.68769836 8.57958984 C-0.60792497 4.3290107 -0.60792497 4.3290107 -3 1 C-2.01 0.67 -1.02 0.34 0 0 Z " fill="#1463AE" transform="translate(337,218)"/>
<path d="M0 0 C0.99 0.33 1.98 0.66 3 1 C3.24094927 25.67320551 2.56693708 50.33522131 2 75 C1.67 75 1.34 75 1 75 C0.67 52.23 0.34 29.46 0 6 C-5.03307897 7.98725393 -5.03307897 7.98725393 -8.3125 11.625 C-8.82425781 12.25664063 -9.33601563 12.88828125 -9.86328125 13.5390625 C-10.23839844 14.02117187 -10.61351562 14.50328125 -11 15 C-11.99 14.67 -12.98 14.34 -14 14 C-9.38 9.38 -4.76 4.76 0 0 Z " fill="#1059A4" transform="translate(387,78)"/>
<path d="M0 0 C0 4.61358127 -1.64236924 7.61691366 -4.875 10.91015625 C-10.29989095 15.76663032 -10.29989095 15.76663032 -14 17 C-14.88480198 18.36123382 -15.76661978 19.72450578 -16.6328125 21.09765625 C-18.41000816 23.57049706 -20.40100578 25.73183558 -22.5 27.9375 C-23.62921875 29.12666016 -23.62921875 29.12666016 -24.78125 30.33984375 C-25.87953125 31.16162109 -25.87953125 31.16162109 -27 32 C-28.32 31.67 -29.64 31.34 -31 31 C-20.77 20.77 -10.54 10.54 0 0 Z " fill="#0C62B9" transform="translate(348,117)"/>
<path d="M0 0 C-2.68421327 0.8454215 -5.37156768 1.67647233 -8.0625 2.5 C-8.81466797 2.73847656 -9.56683594 2.97695312 -10.34179688 3.22265625 C-15.06156278 4.65288834 -19.02523352 5.14333061 -24 5 C-25.66687085 5.33231078 -27.33352993 5.66568518 -29 6 C-31.61761051 6.11860617 -34.19566152 6.19055813 -36.8125 6.1875 C-37.52446533 6.18669434 -38.23643066 6.18588867 -38.9699707 6.18505859 C-45.96004976 6.10339692 -51.58955341 4.80457039 -58 2 C-54.42355152 0.7619986 -51.66305234 1.25073929 -48 2 C-48 2.66 -48 3.32 -48 4 C-34.83394701 3.66135348 -11.78697776 -3.65802758 0 0 Z " fill="#3C80B7" transform="translate(275,223)"/>
<path d="M0 0 C2.475 0.99 2.475 0.99 5 2 C4.01 2.66 3.02 3.32 2 4 C1.71355318 6.63257753 1.62156256 9.02911842 1.65942383 11.66259766 C1.65898575 12.45292892 1.65854767 13.24326019 1.65809631 14.05754089 C1.66019068 16.6766305 1.68355174 19.29508437 1.70703125 21.9140625 C1.71262491 23.7272405 1.71689609 25.54042303 1.71989441 27.35360718 C1.73136131 32.13114898 1.76084425 36.90841814 1.79400635 41.68585205 C1.82466757 46.55875968 1.83839129 51.43171126 1.85351562 56.3046875 C1.88571227 65.8699116 1.9369308 75.43493315 2 85 C1.34 85 0.68 85 0 85 C0 56.95 0 28.9 0 0 Z " fill="#C0DAF5" transform="translate(212,222)"/>
<path d="M0 0 C3.76603869 1.56282982 6.13639151 3.9063475 8.984375 6.7890625 C9.44483215 7.25234955 9.90528931 7.7156366 10.37969971 8.19296265 C11.84125078 9.66565898 13.29567168 11.14517403 14.75 12.625 C15.74302611 13.62806322 16.73651089 14.63067257 17.73046875 15.6328125 C20.15897941 18.08330835 22.58114675 20.5399667 25 23 C22 24 22 24 20 24 C19.5875 23.05125 19.175 22.1025 18.75 21.125 C16.9959869 17.99283376 16.29148243 17.13499394 13 16 C13 15.34 13 14.68 13 14 C11.35 14 9.7 14 8 14 C8.33 12.68 8.66 11.36 9 10 C5.6659053 7.80902348 2.95820859 6.56545837 -1 6 C-1.042721 4.33388095 -1.04063832 2.66617115 -1 1 C-0.67 0.67 -0.34 0.34 0 0 Z " fill="#0E61B7" transform="translate(202,78)"/>
<path d="M0 0 C2.31 0.66 4.62 1.32 7 2 C4 4 4 4 2 4 C2 5.65 2 7.3 2 9 C2.99 9.33 3.98 9.66 5 10 C0.05 14.95 -4.9 19.9 -10 25 C-11 22 -11 22 -10 19 C-9.01 18.67 -8.02 18.34 -7 18 C-5.79117904 15.99983534 -5.79117904 15.99983534 -5 14 C-4.01 14.33 -3.02 14.66 -2 15 C-2.020625 14.071875 -2.04125 13.14375 -2.0625 12.1875 C-2 9 -2 9 -1 6 C-0.64763503 4.00326516 -0.31165441 2.00349261 0 0 Z " fill="#0A62BC" transform="translate(332,304)"/>
<path d="M0 0 C0.33 0 0.66 0 1 0 C1.21712953 4.64413819 1.4139689 9.28852611 1.59204102 13.93432617 C1.65547413 15.51463803 1.7244491 17.09473755 1.79907227 18.67456055 C1.90537623 20.94547012 1.99172961 23.21639744 2.07421875 25.48828125 C2.11157639 26.19463211 2.14893402 26.90098297 2.18742371 27.6287384 C2.33850449 32.55691778 2.33850449 32.55691778 0.49536133 34.96948242 C-0.24484253 35.47958862 -0.24484253 35.47958862 -1 36 C-1 35.34 -1 34.68 -1 34 C-1.66 34 -2.32 34 -3 34 C-3 33.34 -3 32.68 -3 32 C-3.59329102 31.73268066 -4.18658203 31.46536133 -4.79785156 31.18994141 C-7.02933245 29.98415007 -8.4664799 28.7641905 -10.234375 26.9609375 C-10.80800781 26.38085938 -11.38164062 25.80078125 -11.97265625 25.203125 C-12.55917969 24.59984375 -13.14570313 23.9965625 -13.75 23.375 C-14.35199219 22.76398438 -14.95398438 22.15296875 -15.57421875 21.5234375 C-17.05405305 20.02011376 -18.52764676 18.51065144 -20 17 C-17 17 -17 17 -15.16796875 18.6796875 C-14.51441406 19.40414062 -13.86085938 20.12859375 -13.1875 20.875 C-10.00170324 24.20801472 -7.64298487 26.07140303 -3 27 C-3 27.99 -3 28.98 -3 30 C-2.34 30.33 -1.68 30.66 -1 31 C-0.67 20.77 -0.34 10.54 0 0 Z " fill="#1460B3" transform="translate(387,214)"/>
<path d="M0 0 C3.70826651 -0.05837668 7.4164137 -0.09372277 11.125 -0.125 C12.69507813 -0.15013672 12.69507813 -0.15013672 14.296875 -0.17578125 C19.59269336 -0.20929909 24.0571059 -0.17213685 29 2 C29 2.33 29 2.66 29 3 C12.665 3.495 12.665 3.495 -4 4 C-3.01 3.67 -2.02 3.34 -1 3 C-0.67 2.01 -0.34 1.02 0 0 Z " fill="#3F83B5" transform="translate(297,213)"/>
<path d="M0 0 C0.66 0.33 1.32 0.66 2 1 C1.8125 3.3125 1.8125 3.3125 1 6 C-0.65532623 7.01866229 -2.32260138 8.01810813 -4 9 C-4.68753301 10.65816784 -5.35561283 12.32459336 -6 14 C-8.60391451 15.76394209 -9.80780296 16 -13 16 C-14.68798827 17.43750191 -14.68798827 17.43750191 -16 19 C-16.66 18.67 -17.32 18.34 -18 18 C-12.06 12.06 -6.12 6.12 0 0 Z " fill="#0B61BD" transform="translate(150,403)"/>
<path d="M0 0 C0.99 0.66 1.98 1.32 3 2 C5.62531524 2.16713569 5.62531524 2.16713569 8 2 C7.979375 2.94875 7.95875 3.8975 7.9375 4.875 C7.77448174 7.90666283 7.77448174 7.90666283 9 10 C7.8553125 10.1546875 7.8553125 10.1546875 6.6875 10.3125 C3.82940576 11.04364039 2.84257115 11.76951913 1 14 C1 12.35 1 10.7 1 9 C-0.65 9 -2.3 9 -4 9 C-3.525625 8.62875 -3.05125 8.2575 -2.5625 7.875 C-0.47794198 5.37353038 -0.35378509 3.18406582 0 0 Z " fill="#C5DBCF" transform="translate(302,241)"/>
<path d="M0 0 C-0.66 0 -1.32 0 -2 0 C-2 0.66 -2 1.32 -2 2 C-6.17737474 3.59138085 -9.53160785 4.21278058 -14 4 C-14 4.66 -14 5.32 -14 6 C-16.72827365 6.50534727 -19.45744694 7.00443845 -22.1875 7.5 C-22.95642578 7.64308594 -23.72535156 7.78617187 -24.51757812 7.93359375 C-28.39421773 8.63238715 -32.041471 9.19039017 -36 9 C-33.05914684 7.41430423 -30.23464666 6.4160769 -27.0078125 5.5625 C-25.57888672 5.17964844 -25.57888672 5.17964844 -24.12109375 4.7890625 C-23.13238281 4.52867187 -22.14367187 4.26828125 -21.125 4 C-19.1688476 3.4807585 -17.21310586 2.95996705 -15.2578125 2.4375 C-14.34241699 2.19306152 -13.42702148 1.94862305 -12.48388672 1.69677734 C-10.45381398 1.12730343 -8.44847443 0.47029413 -6.453125 -0.2109375 C-3.80433322 -1.06293741 -2.56621807 -0.98700695 0 0 Z " fill="#5793BE" transform="translate(286,303)"/>
<path d="M0 0 C0.33 0.66 0.66 1.32 1 2 C-1.57013004 7.55148088 -3.8355774 9.65831479 -9 13 C-11.46263825 15.56173838 -13.74674607 18.25343012 -16 21 C-17.32 20.67 -18.64 20.34 -20 20 C-13.4 13.4 -6.8 6.8 0 0 Z " fill="#0C62B9" transform="translate(372,93)"/>
<path d="M0 0 C3.82946843 1.45255699 5.12050295 3.42895561 7 7 C5.7934375 7.309375 5.7934375 7.309375 4.5625 7.625 C3.716875 8.07875 2.87125 8.5325 2 9 C1.10169161 12.05272465 1.10169161 12.05272465 1 15 C0.67 15 0.34 15 0 15 C-0.19390729 12.68802845 -0.37996367 10.3753971 -0.5625 8.0625 C-0.71912109 6.13083984 -0.71912109 6.13083984 -0.87890625 4.16015625 C-0.91886719 3.11730469 -0.95882813 2.07445313 -1 1 C-0.67 0.67 -0.34 0.34 0 0 Z " fill="#065FC0" transform="translate(405,77)"/>
<path d="M0 0 C0.33 0 0.66 0 1 0 C1.14288284 6.35374934 1.28524624 12.70751016 1.42724609 19.0612793 C1.47562857 21.22339136 1.52413057 23.38550076 1.57275391 25.54760742 C1.6425661 28.6528251 1.71195039 31.75805209 1.78125 34.86328125 C1.80312378 35.83211746 1.82499756 36.80095367 1.84753418 37.79914856 C1.86755493 38.6998558 1.88757568 39.60056305 1.90820312 40.52856445 C1.92596802 41.32132278 1.94373291 42.11408112 1.96203613 42.93086243 C1.99303408 44.62033799 2 46.31024009 2 48 C1.34 47.67 0.68 47.34 0 47 C0 31.49 0 15.98 0 0 Z " fill="#205A96" transform="translate(199,402)"/>
<path d="M0 0 C1.09699219 -0.01224609 2.19398438 -0.02449219 3.32421875 -0.03710938 C4.90009766 -0.04000977 4.90009766 -0.04000977 6.5078125 -0.04296875 C7.46574707 -0.04707764 8.42368164 -0.05118652 9.41064453 -0.05541992 C11.875 0.1875 11.875 0.1875 14.875 2.1875 C13.225 2.8475 11.575 3.5075 9.875 4.1875 C9.875 3.5275 9.875 2.8675 9.875 2.1875 C4.925 2.1875 -0.025 2.1875 -5.125 2.1875 C-5.455 2.8475 -5.785 3.5075 -6.125 4.1875 C-7.115 4.1875 -8.105 4.1875 -9.125 4.1875 C-9.125 3.5275 -9.125 2.8675 -9.125 2.1875 C-11.765 2.1875 -14.405 2.1875 -17.125 2.1875 C-17.125 1.8575 -17.125 1.5275 -17.125 1.1875 C-11.41535828 -0.11368568 -5.83035315 0.00344991 0 0 Z " fill="#104432" transform="translate(310.125,215.8125)"/>
<path d="M0 0 C0.87640137 -0.00918457 1.75280273 -0.01836914 2.65576172 -0.02783203 C3.48994629 -0.02380371 4.32413086 -0.01977539 5.18359375 -0.015625 C5.9305249 -0.01336914 6.67745605 -0.01111328 7.44702148 -0.00878906 C9.84035957 0.2839909 11.47964454 1.06349996 13.5625 2.25 C11.5825 2.58 9.6025 2.91 7.5625 3.25 C7.5625 2.59 7.5625 1.93 7.5625 1.25 C3.89561187 1.55993506 0.22903494 1.87341651 -3.4375 2.1875 C-4.46746094 2.27451172 -5.49742187 2.36152344 -6.55859375 2.45117188 C-12.20452674 2.93665019 -17.82036561 3.50059866 -23.4375 4.25 C-17.98334125 -1.20415875 -7.25333829 0.04312019 0 0 Z " fill="#74ADCC" transform="translate(310.4375,297.75)"/>
<path d="M0 0 C1.98 1.32 3.96 2.64 6 4 C5.67 4.66 5.34 5.32 5 6 C-3.91 6 -12.82 6 -22 6 C-22 5.67 -22 5.34 -22 5 C-11.605 4.505 -11.605 4.505 -1 4 C-0.67 2.68 -0.34 1.36 0 0 Z " fill="#2463B7" transform="translate(461,134)"/>
<path d="M0 0 C3.21524305 1.40844718 5.32183868 3.10344786 7.75 5.625 C8.67039063 6.57246094 8.67039063 6.57246094 9.609375 7.5390625 C10.29773438 8.26222656 10.29773438 8.26222656 11 9 C7.59593918 9 5.19466306 8.13144317 2 7 C1.01 6.67 0.02 6.34 -1 6 C-1.042721 4.33388095 -1.04063832 2.66617115 -1 1 C-0.67 0.67 -0.34 0.34 0 0 Z " fill="#1561AB" transform="translate(202,78)"/>
<path d="M0 0 C-0.1875 1.875 -0.1875 1.875 -1 4 C-2.0828125 4.4021875 -2.0828125 4.4021875 -3.1875 4.8125 C-7.24611185 6.52613611 -9.33891586 9.57991248 -12 13 C-12.99 12.67 -13.98 12.34 -15 12 C-13.07141188 9.99068029 -11.133102 7.99272731 -9.1875 6 C-8.64029297 5.42765625 -8.09308594 4.8553125 -7.52929688 4.265625 C-3.33984375 0 -3.33984375 0 0 0 Z " fill="#0F63B8" transform="translate(388,80)"/>
<path d="M0 0 C1.17539996 0.92652701 2.34010577 1.86663387 3.5 2.8125 C4.1496875 3.33457031 4.799375 3.85664063 5.46875 4.39453125 C7 6 7 6 7 9 C3.79604584 9 1.90600261 8.25664978 -1 7 C-0.67 4.69 -0.34 2.38 0 0 Z " fill="#0C63BF" transform="translate(377,252)"/>
<path d="M0 0 C5.29012124 4.40843437 10.18808428 9.07559794 15 14 C14.01 14.495 14.01 14.495 13 15 C11.88625 13.7934375 11.88625 13.7934375 10.75 12.5625 C8.24695171 10.23011409 7.2819045 9.36465606 4 9 C4 7.68 4 6.36 4 5 C3.34 5 2.68 5 2 5 C1.34 3.35 0.68 1.7 0 0 Z " fill="#1363B3" transform="translate(283,158)"/>
<path d="M0 0 C4.52615993 3.67832017 8.39424999 7.41086363 12 12 C11.01 12.495 11.01 12.495 10 13 C7.875 12.0625 7.875 12.0625 6 11 C6 9.68 6 8.36 6 7 C5.38125 6.95875 4.7625 6.9175 4.125 6.875 C3.42375 6.58625 2.7225 6.2975 2 6 C0.75 2.9375 0.75 2.9375 0 0 Z " fill="#0F5FB6" transform="translate(245,120)"/>
<path d="M0 0 C0 3.90838866 -1.50567876 5.11594107 -4 8 C-2.44499019 11.81684226 0.03595495 14.19195732 3 17 C2.67 17.66 2.34 18.32 2 19 C0.46452525 17.59921602 -1.05305148 16.17879097 -2.5625 14.75 C-3.40941406 13.96109375 -4.25632812 13.1721875 -5.12890625 12.359375 C-7 10 -7 10 -6.96875 7.90625 C-5.87597823 5.75595717 -4.69611638 4.39636427 -2.9375 2.75 C-2.38964844 2.22921875 -1.84179688 1.7084375 -1.27734375 1.171875 C-0.64505859 0.59179688 -0.64505859 0.59179688 0 0 Z " fill="#1762AD" transform="translate(309,156)"/>
<path d="M0 0 C0.86625 0.4640625 0.86625 0.4640625 1.75 0.9375 C4.51795905 2.24459178 6.93361147 3 10 3 C9.95875 3.7425 9.9175 4.485 9.875 5.25 C10.00543638 8.11960046 10.6545235 9.52093306 12 12 C7.47384007 8.32167983 3.60575001 4.58913637 0 0 Z " fill="#0F61B2" transform="translate(46,133)"/>
<path d="M0 0 C0 4.3417471 -2.05152557 6.90676843 -5 10 C-8.3125 11.4375 -8.3125 11.4375 -11 12 C-7.49102731 7.81576108 -3.91939465 3.80411834 0 0 Z " fill="#0E60B3" transform="translate(127,426)"/>
<path d="M0 0 C7.48291572 6.15034169 7.48291572 6.15034169 10 10 C7.69 9.67 5.38 9.34 3 9 C2.87625 8.2575 2.7525 7.515 2.625 6.75 C2.0421624 4.18551458 1.21335551 2.30833488 0 0 Z " fill="#1364B8" transform="translate(361,236)"/>
<path d="M0 0 C4.52615993 3.67832017 8.39424999 7.41086363 12 12 C9.53199953 10.84826645 7.95216435 9.95216435 6 8 C3.41645782 7.83312552 3.41645782 7.83312552 1 8 C1.020625 7.236875 1.04125 6.47375 1.0625 5.6875 C1.12942841 2.89814214 1.12942841 2.89814214 0 0 Z " fill="#1362B6" transform="translate(329,204)"/>
<path d="M0 0 C0.99 0.33 1.98 0.66 3 1 C1.6905332 2.33631236 0.37734515 3.66897925 -0.9375 5 C-1.66839844 5.7425 -2.39929688 6.485 -3.15234375 7.25 C-5 9 -5 9 -6 9 C-6.375 6.75 -6.375 6.75 -6 4 C-3.1875 1.625 -3.1875 1.625 0 0 Z " fill="#0D60B8" transform="translate(246,401)"/>
<path d="M0 0 C1.32 0.33 2.64 0.66 4 1 C2.6905332 2.33631236 1.37734515 3.66897925 0.0625 5 C-0.66839844 5.7425 -1.39929688 6.485 -2.15234375 7.25 C-4 9 -4 9 -5 9 C-5 7.35 -5 5.7 -5 4 C-4.360625 3.71125 -3.72125 3.4225 -3.0625 3.125 C-0.84793921 2.17176549 -0.84793921 2.17176549 0 0 Z " fill="#0D60B7" transform="translate(357,289)"/>
<path d="M0 0 C0.66 0.33 1.32 0.66 2 1 C-1.97014925 8.65671642 -1.97014925 8.65671642 -6 10 C-6.99 10.495 -6.99 10.495 -8 11 C-6.52670958 5.99081256 -3.72484762 3.48192278 0 0 Z " fill="#CDE5D6" transform="translate(286,240)"/>
<path d="M0 0 C1.12894876 0.93274109 2.25300876 1.87140122 3.375 2.8125 C4.00148438 3.33457031 4.62796875 3.85664063 5.2734375 4.39453125 C7 6 7 6 9 9 C4.56 9.36 4.56 9.36 2.25 7.875 C0.56014759 5.34022139 0.33269391 2.99424517 0 0 Z " fill="#1061B5" transform="translate(266,141)"/>
<path d="M0 0 C0.33 0.99 0.66 1.98 1 3 C0.21625 3.5775 -0.5675 4.155 -1.375 4.75 C-3.80047244 6.82897637 -4.85694417 8.09040333 -6 11 C-7.32 10.67 -8.64 10.34 -10 10 C-6.7 6.7 -3.4 3.4 0 0 Z " fill="#1361B1" transform="translate(170,384)"/>
<path d="M0 0 C7.48291572 6.15034169 7.48291572 6.15034169 10 10 C6.66666667 8.33333333 3.33333333 6.66666667 0 5 C0 3.35 0 1.7 0 0 Z " fill="#1260B2" transform="translate(235,110)"/>
<path d="M0 0 C-2.31 2.31 -4.62 4.62 -7 7 C-7.33 5.68 -7.66 4.36 -8 3 C-5.45189726 -0.82215411 -4.39145359 -1.46381786 0 0 Z " fill="#0D61B8" transform="translate(217,434)"/>
<path d="M0 0 C1.32 0 2.64 0 4 0 C4 0.99 4 1.98 4 3 C4.763125 3.12375 5.52625 3.2475 6.3125 3.375 C9 4 9 4 12 6 C6.72250715 5.46148032 2.74354436 4.22656164 -2 2 C-1.34 1.34 -0.68 0.68 0 0 Z " fill="#C3D7ED" transform="translate(216,306)"/>
<path d="M0 0 C0.99 0.33 1.98 0.66 3 1 C0.36 3.64 -2.28 6.28 -5 9 C-6 6 -6 6 -5 3 C-3.68 3 -2.36 3 -1 3 C-0.67 2.01 -0.34 1.02 0 0 Z " fill="#0F61B8" transform="translate(375,272)"/>
<path d="M0 0 C0.66 0.33 1.32 0.66 2 1 C0.02 3.31 -1.96 5.62 -4 8 C-4.33 7.01 -4.66 6.02 -5 5 C-7.01508358 4.26676204 -7.01508358 4.26676204 -9 4 C-8.43410156 3.79503906 -7.86820312 3.59007812 -7.28515625 3.37890625 C-6.55167969 3.10949219 -5.81820313 2.84007812 -5.0625 2.5625 C-4.33160156 2.29566406 -3.60070312 2.02882813 -2.84765625 1.75390625 C-1.01694322 1.14613052 -1.01694322 1.14613052 0 0 Z " fill="#CBE2D5" transform="translate(313,266)"/>
<path d="M0 0 C1.2065625 0.0309375 1.2065625 0.0309375 2.4375 0.0625 C2.7675 1.3825 3.0975 2.7025 3.4375 4.0625 C1.4575 3.4025 -0.5225 2.7425 -2.5625 2.0625 C-2.5625 5.3625 -2.5625 8.6625 -2.5625 12.0625 C-2.8925 12.0625 -3.2225 12.0625 -3.5625 12.0625 C-3.58937279 10.25007948 -3.60883715 8.43754767 -3.625 6.625 C-3.63660156 5.61566406 -3.64820313 4.60632813 -3.66015625 3.56640625 C-3.52706167 0.15386128 -3.42090834 0.08343679 0 0 Z " fill="#1166BA" transform="translate(213.5625,219.9375)"/>
<path d="M0 0 C1.32 0.66 2.64 1.32 4 2 C3.67 2.66 3.34 3.32 3 4 C2.67 4 2.34 4 2 4 C1.67 7.63 1.34 11.26 1 15 C0.67 15 0.34 15 0 15 C-0.19390729 12.68802845 -0.37996367 10.3753971 -0.5625 8.0625 C-0.71912109 6.13083984 -0.71912109 6.13083984 -0.87890625 4.16015625 C-0.91886719 3.11730469 -0.95882813 2.07445313 -1 1 C-0.67 0.67 -0.34 0.34 0 0 Z " fill="#1254A4" transform="translate(405,77)"/>
<path d="M0 0 C-2.31 2.31 -4.62 4.62 -7 7 C-8 4 -8 4 -7.25 1.875 C-5.12549708 -1.31175437 -3.46820912 -1.15606971 0 0 Z " fill="#0D60B8" transform="translate(297,354)"/>
<path d="M0 0 C-2.31 2.31 -4.62 4.62 -7 7 C-8.04449911 3.86650268 -7.93423645 3.01031744 -7 0 C-3.98968256 -0.93423645 -3.13349732 -1.04449911 0 0 Z " fill="#0D61B9" transform="translate(313,338)"/>
<path d="M0 0 C-2.31 2.31 -4.62 4.62 -7 7 C-8 4 -8 4 -7.25 1.875 C-5.12549708 -1.31175437 -3.46820912 -1.15606971 0 0 Z " fill="#0D60B7" transform="translate(265,386)"/>
<path d="M0 0 C7.48291572 6.15034169 7.48291572 6.15034169 10 10 C8.35 10 6.7 10 5 10 C3.33333333 6.66666667 1.66666667 3.33333333 0 0 Z " fill="#1764B4" transform="translate(313,188)"/>
<path d="M0 0 C1.98 1.65 3.96 3.3 6 5 C3.10765685 5.82638376 1.11257569 6 -2 6 C-1.34 4.02 -0.68 2.04 0 0 Z " fill="#0B61C1" transform="translate(227,102)"/>
<path d="M0 0 C0.66 0.33 1.32 0.66 2 1 C-0.64 3.64 -3.28 6.28 -6 9 C-6.66 7.68 -7.32 6.36 -8 5 C-7.05125 4.54625 -6.1025 4.0925 -5.125 3.625 C-1.99686321 2.19761746 -1.99686321 2.19761746 0 0 Z " fill="#0E5EB0" transform="translate(350,298)"/>
<path d="M0 0 C1.98 1.65 3.96 3.3 6 5 C3.50935112 5.68707555 1.62113708 6 -1 6 C-0.67 4.02 -0.34 2.04 0 0 Z " fill="#0C61C0" transform="translate(275,150)"/>
<path d="M0 0 C-3.66291938 2.47785723 -6.6109185 3.48964169 -11 4 C-11.33 3.34 -11.66 2.68 -12 2 C-10.56656 1.46809459 -9.12804633 0.94984742 -7.6875 0.4375 C-6.48673828 0.00244141 -6.48673828 0.00244141 -5.26171875 -0.44140625 C-3 -1 -3 -1 0 0 Z " fill="#174028" transform="translate(313,267)"/>
<path d="M0 0 C3.3 0.33 6.6 0.66 10 1 C10.33 1.99 10.66 2.98 11 4 C7.0507432 3.44894091 3.65079826 2.61064629 0 1 C0 0.67 0 0.34 0 0 Z " fill="#2972BC" transform="translate(217,224)"/>
<path d="M0 0 C2.97 1.98 2.97 1.98 6 4 C5.67 4.66 5.34 5.32 5 6 C2.03 5.505 2.03 5.505 -1 5 C-0.67 3.35 -0.34 1.7 0 0 Z " fill="#115BB0" transform="translate(461,134)"/>
<path d="M0 0 C2.875 0.625 2.875 0.625 6 2 C7.375 5.125 7.375 5.125 8 8 C6.85073734 7.04578192 5.70569459 6.08647955 4.5625 5.125 C3.92441406 4.59132812 3.28632812 4.05765625 2.62890625 3.5078125 C1 2 1 2 0 0 Z " fill="#125AAE" transform="translate(104,192)"/>
<path d="M0 0 C1.65 1.65 3.3 3.3 5 5 C3.02 5.33 1.04 5.66 -1 6 C-0.67 4.02 -0.34 2.04 0 0 Z " fill="#0962C0" transform="translate(259,134)"/>
<path d="M0 0 C1.9375 0.3125 1.9375 0.3125 4 1 C4.33 1.99 4.66 2.98 5 4 C4.01 5.485 4.01 5.485 3 7 C0 2.25 0 2.25 0 0 Z " fill="#1E4A30" transform="translate(282,259)"/>
<path d="M0 0 C2.31 1.98 4.62 3.96 7 6 C4.66666667 6 2.33333333 6 0 6 C0 4.02 0 2.04 0 0 Z " fill="#1362B2" transform="translate(298,173)"/>
</svg>
